<svg width="452" height="152" viewBox="0 0 452 152" fill="none" xmlns="http://www.w3.org/2000/svg">
<g clip-path="url(#clip0_29661_5946)">
<path d="M75.9878 41.219H63.8633C62.7665 41.219 61.8691 42.1163 61.8691 43.2131L61.8392 50.442C53.7628 41.3087 43.5227 41.209 37.281 41.209C16.5516 41.209 0 58.628 0 80.0554C0 101.483 16.5516 118.902 37.281 118.902C43.3732 118.902 53.8326 118.732 61.8392 109.669V118.034C61.8392 127.267 49.8243 132.781 42.6752 132.841C29.414 132.951 23.8104 128.942 19.0942 126.938C18.8848 126.849 18.6554 126.789 18.4261 126.759C17.3692 126.609 16.3821 127.327 16.0929 128.354L13.4108 137.886L13.2114 138.853C12.7228 141.296 13.6601 143.799 15.6443 145.305C16.2525 145.763 16.9006 146.162 17.1598 146.292C24.0198 149.662 35.4962 151.646 42.4957 151.646C64.7905 151.646 82.9076 137.009 82.9076 115.591L82.9375 48.1786C82.9375 44.3498 79.8066 41.219 75.9778 41.219H75.9878ZM41.3591 100.236C30.1817 100.236 21.0983 91.6814 21.0983 80.1551C21.0983 68.6288 30.1817 60.0738 41.3591 60.0738C52.5364 60.0738 61.6198 68.6288 61.6198 80.1551C61.6198 91.6814 52.5364 100.236 41.3591 100.236Z" fill="#00BD87"/>
<path d="M142.812 59.9848C126.331 59.9848 119.73 76.1276 119.73 84.1043V117.128C119.73 118.224 118.833 119.122 117.736 119.122H105.621C101.832 119.122 98.7313 116.021 98.7313 112.232V43.1939C98.7313 42.0971 99.6287 41.1997 100.725 41.1997H112.84C116.629 41.1997 119.73 44.3007 119.73 48.0896V50.4925C128.105 41.3293 138.645 41.2496 141.596 41.2496H144.547C146.452 41.2496 148.536 43.154 148.536 45.2379V56.0563C148.536 58.22 146.761 59.9948 144.597 59.9948H142.812V59.9848Z" fill="#00BD87"/>
<path d="M235.143 80.1551C235.143 101.632 216.806 119.101 194.103 119.101C171.399 119.101 153.063 101.642 153.063 80.1551C153.063 58.6679 171.399 41.209 194.103 41.209C216.806 41.209 235.143 58.6679 235.143 80.1551ZM214.363 80.1551C214.363 68.6288 205.28 60.0738 194.103 60.0738C182.925 60.0738 173.842 68.6288 173.842 80.1551C173.842 91.6814 182.925 100.236 194.103 100.236C205.28 100.236 214.363 91.6814 214.363 80.1551Z" fill="#00BD87"/>
<path d="M428.169 47.9194L425.217 58.2193C424.808 59.6451 425.237 61.1607 426.304 62.1976C431.08 66.874 434.33 72.4377 434.281 80.2947C434.201 93.9647 423.373 104.055 410.111 103.985C396.85 103.906 386.141 93.6955 386.211 80.0255C386.241 74.043 387.956 70.2042 389.831 67.4024C390.808 65.9367 390.748 64.0223 389.651 62.6563L382.781 54.1113C382.003 53.1441 380.528 53.1142 379.72 54.0515C373.638 61.041 369.281 68.6189 369.211 79.9258C369.091 101.403 387.328 118.972 410.032 119.101C432.735 119.231 451.171 101.872 451.291 80.3944C451.371 65.6077 443.324 53.6825 431.08 46.7229C429.963 46.0847 428.527 46.673 428.178 47.9194H428.169Z" fill="#268BF0"/>
<path d="M410.05 40.8107C415.046 40.3021 419.004 38.6669 421.806 35.7156C431.278 25.7347 426.742 0 426.742 0C426.742 0 405.743 5.07516 399.192 19.2537C396.849 24.3289 395.902 29.4937 398.783 35.1771L399.093 35.7455C403.121 25.2063 408.734 19.2736 415.355 12.5732C399.023 39.1754 399.89 53.4537 406.152 63.8034H400.469L399.182 68.4698H405.464C407.638 68.4698 409.183 68.9484 410.19 69.9455C410.609 70.3642 410.948 70.8428 411.187 71.4012H400.429L399.192 75.7684H411.436C411.317 76.1473 411.167 76.4963 410.978 76.8253C410.519 77.5831 409.811 78.1814 408.894 78.5902C407.977 78.999 406.83 79.2084 405.474 79.2084H399.661L399.691 82.5984L410.958 96.2685L411.038 96.3582H417.618L407.109 83.4958C409.392 83.3263 411.287 82.8178 412.733 81.9703C414.248 81.0929 415.365 79.9263 416.073 78.5004C416.492 77.6529 416.781 76.7356 416.95 75.7585H420.231L421.467 71.3912H416.871C416.661 70.3842 416.312 69.4469 415.834 68.5894C415.754 68.4399 415.664 68.3003 415.574 68.1607L420.221 68.1906L421.467 63.8034H411.706C408.734 59.9347 405.284 52.7258 406.501 40.7309C407.518 40.9303 408.665 40.9502 410.041 40.8007H410.05V40.8107Z" fill="#00BD87"/>
<path d="M356.975 117.087C356.975 118.184 356.078 119.082 354.981 119.082H343.146C339.357 119.082 336.256 115.981 336.256 112.192V73.7741C336.256 69.3271 334.89 60.0741 324.789 60.0741C313.831 60.0741 312.804 71.0321 312.465 75.9976V117.077C312.465 118.174 311.568 119.072 310.471 119.072H298.636C294.847 119.072 291.746 115.971 291.746 112.182V73.7641C291.746 69.3171 290.549 60.0642 280.279 60.0642C268.634 60.0642 267.786 72.5576 267.786 77.0146V117.067C267.786 118.164 266.889 119.062 265.792 119.062H253.956C250.168 119.062 247.067 115.961 247.067 112.172V43.1935C247.067 42.0967 247.964 41.1993 249.061 41.1993H261.275C264.426 41.1993 267.776 44.1308 267.776 47.7003V49.6048C271.784 41.4785 281.566 41.1295 283.789 41.1993C290.5 41.4087 295.375 42.6551 302.056 50.9807C312.176 40.6111 323.184 41.2093 324.72 41.1993C347.832 41.0398 357.234 59.0571 356.975 68.9382V117.087Z" fill="#268BF0"/>
</g>
<defs>
<clipPath id="clip0_29661_5946">
<rect width="451.29" height="151.647" fill="white"/>
</clipPath>
</defs>
</svg>
