<svg xmlns="http://www.w3.org/2000/svg" width="128.043" height="30.885" viewBox="0 0 128.043 30.885"><path data-name="Path 3630" d="M50.876 22.982a6.4 6.4 0 0 1-1.9-3.14 14.7 14.7 0 0 1-.572-4.113 13.4 13.4 0 0 1 .476-3.5 7.26 7.26 0 0 1 1.487-2.916 6.53 6.53 0 0 1 4.247-2.3 9.6 9.6 0 0 1 4.686.42 6.52 6.52 0 0 1 3.546 3.368 10.95 10.95 0 0 1 1.068 4.992 12.7 12.7 0 0 1-.44 3.562 9.3 9.3 0 0 1-1.141 2.527 6.33 6.33 0 0 1-3.863 2.656 8.4 8.4 0 0 1-4.212.1 7.3 7.3 0 0 1-3.385-1.651m3.037-11.4a6.08 6.08 0 0 0-1.2 4.436 7.2 7.2 0 0 0 1.077 4.112 2.84 2.84 0 0 0 1.33.875 2.95 2.95 0 0 0 1.933.065 3.25 3.25 0 0 0 1.74-1.458 7.43 7.43 0 0 0 .824-3.76 6.7 6.7 0 0 0-.726-3.5 3.33 3.33 0 0 0-1.679-1.487 3 3 0 0 0-1.9-.033 3.3 3.3 0 0 0-1.392.745" fill="#1d1e3f"/><path data-name="Path 3631" d="M69.961 28.683a2.15 2.15 0 0 1-.633 1.555 2.07 2.07 0 0 1-1.522.649h-2.152v-16.13q0-4.535 2.6-6.187a10.3 10.3 0 0 1 5.637-1.65 8.9 8.9 0 0 1 3.2.616 5.95 5.95 0 0 1 2.565 1.781 10.47 10.47 0 0 1 1.9 6.476 10.7 10.7 0 0 1-1.9 6.606 5.89 5.89 0 0 1-4.876 2.463 6.3 6.3 0 0 1-2.786-.584 4.8 4.8 0 0 1-2.025-2.005Zm7.216-12.695a6.74 6.74 0 0 0-.948-3.887 3.12 3.12 0 0 0-2.725-1.361 3.05 3.05 0 0 0-2.656 1.361 6.7 6.7 0 0 0-.887 3.887 5.97 5.97 0 0 0 .95 3.688 3.12 3.12 0 0 0 2.724 1.365 3 3 0 0 0 2.6-1.362 6.33 6.33 0 0 0 .948-3.688" fill="#1d1e3f"/><path data-name="Path 3632" d="M87.546 28.683a2.14 2.14 0 0 1-.636 1.555 2.06 2.06 0 0 1-1.519.649h-2.152v-16.13q0-4.535 2.595-6.187a10.3 10.3 0 0 1 5.637-1.65 8.9 8.9 0 0 1 3.2.616 6 6 0 0 1 2.564 1.781 10.5 10.5 0 0 1 1.9 6.476 10.7 10.7 0 0 1-1.9 6.606 5.88 5.88 0 0 1-4.876 2.463 6.3 6.3 0 0 1-2.786-.584 4.8 4.8 0 0 1-2.025-2.005Zm7.216-12.695a6.7 6.7 0 0 0-.951-3.887 3.1 3.1 0 0 0-2.719-1.361 3.06 3.06 0 0 0-2.659 1.361 6.7 6.7 0 0 0-.888 3.887 5.98 5.98 0 0 0 .949 3.688 3.12 3.12 0 0 0 2.723 1.365 2.99 2.99 0 0 0 2.595-1.362 6.3 6.3 0 0 0 .951-3.688" fill="#1d1e3f"/><path data-name="Path 3633" d="M112.971 19.226h3.169a7.1 7.1 0 0 1-2.661 4.146 7.95 7.95 0 0 1-4.942 1.489 6.98 6.98 0 0 1-5.631-2.4q-2.03-2.328-2.028-6.67a9.77 9.77 0 0 1 1.962-6.476 6.99 6.99 0 0 1 5.635-2.4 7.51 7.51 0 0 1 5.892 2.33 10.04 10.04 0 0 1 2.027 6.672v.713a1.1 1.1 0 0 1-.066.453h-10.95a4.5 4.5 0 0 0 .948 2.979 2.96 2.96 0 0 0 2.471 1.037 3.5 3.5 0 0 0 1.836-.453.9.9 0 0 0 .349-.227c.1-.106.221-.227.345-.357a1.4 1.4 0 0 1 .475-.518 1.86 1.86 0 0 1 1.172-.324m-7.595-5.054h6.457a4.27 4.27 0 0 0-.887-2.589 3 3 0 0 0-2.343-.908 3.04 3.04 0 0 0-2.278.908 3.73 3.73 0 0 0-.948 2.589" fill="#1d1e3f"/><path data-name="Path 3634" d="M127.711 6.857h-.331a13 13 0 0 0-3.474.475 8.15 8.15 0 0 0-2.945 1.487 7.4 7.4 0 0 0-2.086 2.876 11.4 11.4 0 0 0-.76 4.434v5.462h.017v3.265h2.309a2.2 2.2 0 0 0 1.63-.694 2.3 2.3 0 0 0 .679-1.664v-6.907a4.12 4.12 0 0 1 .925-2.976 3.82 3.82 0 0 1 2.846-.95h1.52v-4.8Z" fill="#1d1e3f"/><path data-name="Path 3635" d="M46.296 21.587a2.3 2.3 0 0 0-1.668-.676H43.61v-.008h-6.264l9.316-10.2V6.849h-14.4v1.49a2.13 2.13 0 0 0 .658 1.588 2.2 2.2 0 0 0 1.588.639h6.672l-9.447 10.68v3.58h15.262v-1.567a2.23 2.23 0 0 0-.7-1.673" fill="#1d1e3f"/><path data-name="Path 3636" d="m21.959 7.703-10.257 10.26-3.989 3.989a4 4 0 0 0 .036-.55 4.3 4.3 0 0 0-4.956-4.251L13.061 6.885h5.7a4.28 4.28 0 0 0 2.582.863 4 4 0 0 0 .613-.045" fill="#ed763b"/><path data-name="Path 3637" d="M21.353 6.886a3.46 3.46 0 0 0 1.594-.39 3.4 3.4 0 0 1-1.6.4c-.074 0-.149 0-.22-.009Z" fill="#e85739"/><path data-name="Path 3638" d="M23.786 5.877a.4.4 0 0 1-.062.062 3 3 0 0 1-.309.262 4 4 0 0 0 .372-.324" fill="#e85739"/><path data-name="Path 3639" d="M24.794 3.447a3 3 0 0 1-.018.351 2 2 0 0 1-.03.214q-.01.066-.024.128a3.3 3.3 0 0 1-.223.7 4 4 0 0 1-.125.247c-.027.048-.051.1-.08.143a3 3 0 0 1-.187.28 4 4 0 0 1-.205.247 2 2 0 0 1-.12.12 4 4 0 0 1-.372.324l-.006.006a3.3 3.3 0 0 1-.458.289 3.46 3.46 0 0 1-1.594.39h-.229a3.446 3.446 0 0 1-.041-6.875h.271c.119 0 .232.006.354.018a3.5 3.5 0 0 1 1.083.3c.068.033.14.066.2.1.1.051.19.11.286.172a2 2 0 0 1 .193.14l.039.033q.076.058.149.125l.119.116.419.506.089.143c.03.047.054.1.08.143v.006c.024.042.045.08.065.122a1 1 0 0 1 .045.1.3.3 0 0 1 .021.045l.009.03.259.985a3 3 0 0 1 .018.351" fill="#00a8e6"/><path data-name="Path 3640" d="M3.671 17.963q-.112-.009-.223-.009a3.448 3.448 0 0 0-1.493 6.556 3 3 0 0 0 .319.131l.152.053a3 3 0 0 0 .324.08 3.2 3.2 0 0 0 .7.074 3 3 0 0 0 .265-.012 3.446 3.446 0 0 0-.042-6.874" fill="#ed763b"/><path data-name="Path 3641" d="M24.794 3.447a3 3 0 0 1-.018.351 2 2 0 0 1-.03.214q-.01.066-.024.128a3.3 3.3 0 0 1-.223.7 4 4 0 0 1-.125.247c-.027.048-.051.1-.08.143a3 3 0 0 1-.187.28 4 4 0 0 1-.205.247 2 2 0 0 1-.116.122.4.4 0 0 1-.062.062 3 3 0 0 1-.309.262l-.006.006a3.3 3.3 0 0 1-.458.289 3.4 3.4 0 0 1-1.6.4c-.074 0-.149 0-.22-.009a3.446 3.446 0 0 1-.049-6.878 3 3 0 0 1 .265-.013 3.5 3.5 0 0 1 .589.051q.067.01.134.024a.04.04 0 0 0 .021.006q.064.014.128.033.137.036.274.083a3.5 3.5 0 0 1 .492.227l.011.005c.1.051.19.11.286.172a2 2 0 0 1 .193.14l.039.033q.076.058.149.125l.119.116a3.2 3.2 0 0 1 .419.506l.089.143c.03.047.054.1.08.143v.006q.048.089.086.178l.024.042a.3.3 0 0 1 .021.045l.009.03a3.5 3.5 0 0 1 .211.672l.018.1q.017.107.03.217a3 3 0 0 1 .018.351" fill="#fff"/><path data-name="Path 3642" d="M24.794 3.447a3 3 0 0 1-.018.351 2 2 0 0 1-.03.214q-.01.066-.024.128a3.3 3.3 0 0 1-.223.7 4 4 0 0 1-.125.247c-.027.048-.051.1-.08.143a3 3 0 0 1-.187.28 4 4 0 0 1-.205.247 2 2 0 0 1-.116.122.4.4 0 0 1-.062.062 3 3 0 0 1-.309.262l-.006.006a3.3 3.3 0 0 1-.458.289 3.4 3.4 0 0 1-1.6.4c-.074 0-.149 0-.22-.009a3.446 3.446 0 0 1-.049-6.878 3 3 0 0 1 .265-.013 3.5 3.5 0 0 1 .589.051q.067.01.134.024a.04.04 0 0 0 .021.006q.064.014.128.033.137.036.274.083a3.5 3.5 0 0 1 .492.227l.011.005c.1.051.19.11.286.172a2 2 0 0 1 .193.14l.039.033q.076.058.149.125l.119.116a3.2 3.2 0 0 1 .419.506l.089.143c.03.047.054.1.08.143v.006q.048.089.086.178l.024.042a.3.3 0 0 1 .021.045l.009.03a3.5 3.5 0 0 1 .211.672l.018.1q.017.107.03.217a3 3 0 0 1 .018.351" fill="#ed763b"/><path data-name="Path 3643" d="M17.031 3.447A4.28 4.28 0 0 1 18.764.011H3.49a3.43 3.43 0 0 0-3.146 2A3.4 3.4 0 0 0 .021 3.45v3.436h18.743a4.29 4.29 0 0 1-1.733-3.439" fill="#00b5ea"/><path data-name="Path 3644" d="M21.378 17.954h-1.01v.009H6.027a4.3 4.3 0 0 1 1.722 3.439 4 4 0 0 1-.036.55 4.3 4.3 0 0 1-1.687 2.885h18.768V21.37a3.417 3.417 0 0 0-3.416-3.417" fill="#263e91"/></svg>